<?xml version="1.0" encoding="UTF-8"?>
<svg xmlns="http://www.w3.org/2000/svg" viewBox="0 0 1191.11 763">
  <defs>
    <style>
      .cls-1 {
        stroke-width: 5px;
      }

      .cls-1, .cls-2 {
        fill: #fff;
        stroke: #231f20;
        stroke-miterlimit: 10;
      }

      .cls-3 {
        fill: #ed1c24;
      }

      .cls-2 {
        stroke-width: 13px;
      }

      .cls-4 {
        fill: #231f20;
      }
    </style>
  </defs>
  <g id="Circle">
    <circle id="high" class="cls-2" cx="621.33" cy="381.5" r="375"/>
    <circle id="low" class="cls-1" cx="621.33" cy="381.5" r="350"/>
  </g>
  <g id="Clouds">
    <path class="cls-2" d="m529.48,219.35c35.79,0,64.8,33.58,64.8,75,0,41.42-29.01,75-64.8,75H162.29c-35.79,0-64.8-33.58-64.8-75s29.01-75,64.8-75h367.19Z"/>
    <path class="cls-2" d="m440.2,411.21c35.93,0,65.06,33.58,65.06,75s-29.13,75-65.06,75H71.56c-35.93,0-65.06-33.58-65.06-75s29.13-75,65.06-75h368.65Z"/>
    <path class="cls-2" d="m1119.82,294.35c35.78,0,64.79,33.58,64.79,75,0,41.42-29.01,75-64.79,75h-367.14c-35.78,0-64.79-33.58-64.79-75s29.01-75,64.79-75h367.14Z"/>
  </g>
  <g id="Mountains">
    <polyline class="cls-4" points="866.62 631.16 839.08 656.85 803.73 650.42 751 660.29 720.54 689.58 739.29 633.35 782.64 604.06 774.44 558.36 661.96 673.18 649.05 672.01 623.51 690.9 609.76 691.36 638.9 650.4 620.41 653.37 636.18 633.35 615.99 616.82 507.65 712.63 505.26 710.14 620.95 590 653.19 617.43 666.5 618.38 681.74 631.02 780.52 530.12 846.67 599.41 870.5 627.29"/>
  </g>
  <g id="sun">
    <circle class="cls-3" cx="655.55" cy="511.21" r="50"/>
  </g>
</svg>