<svg width="1750.000000" height="1750.000122" viewBox="0 0 1750 1750" fill="none" xmlns="http://www.w3.org/2000/svg" xmlns:xlink="http://www.w3.org/1999/xlink">
	<desc>
			Created with Pixso.
	</desc>
	<defs/>
	<rect id="Прямоугольник 1" x="0.000061" y="0.000122" rx="875.000000" width="1750.000000" height="1750.000000" fill="#000000" fill-opacity="1.000000"/>
	<circle id="Outer Circle" cx="882.535400" cy="723.093018" r="301.523468" fill="#FFFFFF" fill-opacity="1.000000"/>
	<circle id="Outer Circle" cx="882.535400" cy="723.093018" r="298.523468" stroke="#000000" stroke-opacity="1.000000" stroke-width="6.000000"/>
	<path id="Inner Circle" d="M936.9 950.66L880.62 913.97L882.53 911.04L885.48 912.92L830.49 999.14L828.14 998.68C796.34 992.38 766.51 980.83 738.66 964.02C711.38 947.55 687.55 927 667.18 902.35C646.64 877.5 630.84 849.99 619.79 819.81C608.35 788.58 602.63 756.17 602.63 722.59C602.63 684.42 609.96 647.91 624.63 613.06C638.79 579.39 658.78 549.57 684.61 523.61C710.43 497.64 740.09 477.54 773.58 463.3C808.25 448.55 844.57 441.18 882.53 441.18C920.49 441.18 956.81 448.55 991.49 463.3C1024.98 477.54 1054.63 497.64 1080.46 523.61C1106.28 549.57 1126.27 579.39 1140.43 613.06C1155.1 647.91 1162.43 684.42 1162.43 722.59C1162.43 757.89 1156.13 791.86 1143.52 824.48C1131.34 855.99 1114.01 884.42 1091.53 909.77C1069.17 934.99 1043.18 955.5 1013.6 971.3C983.22 987.51 950.96 997.71 916.81 1001.9L909.39 1002.82L992.55 874.04L1052.28 912.62L1048.48 918.5L991.69 881.82L993.59 878.88L996.53 880.77L919.32 1000.33L916.38 998.43L915.96 994.95C949.25 990.86 980.69 980.92 1010.3 965.12C1039.16 949.72 1064.49 929.72 1086.3 905.13C1108.22 880.4 1125.12 852.68 1136.99 821.95C1149.28 790.14 1155.43 757.02 1155.43 722.59C1155.43 685.36 1148.28 649.76 1133.99 615.77C1120.17 582.94 1100.68 553.87 1075.5 528.55C1050.31 503.23 1021.4 483.63 988.75 469.74C954.95 455.37 919.54 448.18 882.53 448.18C845.52 448.18 810.11 455.37 776.31 469.74C743.67 483.63 714.75 503.23 689.57 528.55C664.39 553.87 644.89 582.94 631.08 615.77C616.78 649.76 609.63 685.36 609.63 722.59C609.63 755.34 615.21 786.95 626.36 817.41C637.14 846.83 652.54 873.66 672.57 897.89C692.44 921.92 715.68 941.97 742.28 958.03C769.43 974.41 798.5 985.67 829.5 991.81L828.82 995.25L825.87 993.36L881.48 906.18L940.73 944.79L936.9 950.66Z" fill="#000000" fill-opacity="1.000000" fill-rule="evenodd"/>
	<rect id="Cloud" x="423.214661" y="601.478516" rx="50.253902" width="452.285126" height="100.507805" fill="#FFFFFF" fill-opacity="1.000000"/>
	<rect id="Cloud" x="426.714661" y="604.978516" rx="46.753902" width="445.285126" height="93.507805" stroke="#000000" stroke-opacity="1.000000" stroke-width="7.000000"/>
	<rect id="Cloud" x="348.838867" y="734.148682" rx="50.253902" width="452.285126" height="100.507805" fill="#FFFFFF" fill-opacity="1.000000"/>
	<rect id="Cloud" x="352.338867" y="737.648682" rx="46.753902" width="445.285126" height="93.507805" stroke="#000000" stroke-opacity="1.000000" stroke-width="7.000000"/>
	<rect id="Cloud" x="932.789246" y="678.869507" rx="50.253902" width="452.285126" height="100.507805" fill="#FFFFFF" fill-opacity="1.000000"/>
	<rect id="Cloud" x="936.289246" y="682.369507" rx="46.753902" width="445.285126" height="93.507805" stroke="#000000" stroke-opacity="1.000000" stroke-width="7.000000"/>
	<circle id="Эллипс 1" cx="877.510010" cy="1107.032837" r="50.253902" fill="#F90000" fill-opacity="1.000000"/>
	<path id="Encore" d="M440.63 1180.21Q439.87 1182.05 439.87 1184.19L440.29 1357.73Q440.29 1359.89 441.05 1361.73Q441.82 1363.62 443.39 1365.19Q444.95 1366.75 446.84 1367.53Q448.69 1368.28 450.84 1368.28L582.18 1368.14L582.32 1368.14Q584.48 1368.14 586.32 1367.39Q588.21 1366.61 589.78 1365.05Q591.34 1363.48 592.12 1361.59Q592.87 1359.75 592.87 1357.59Q592.87 1355.44 592.12 1353.6Q591.34 1351.71 589.78 1350.14Q588.21 1348.57 586.32 1347.8Q584.48 1347.05 582.32 1347.05L582.18 1347.05L461.39 1347.19L461.25 1281.8L462.37 1281.8L570.51 1282.5L570.65 1282.5Q572.14 1282.5 573.51 1282.11Q575.91 1281.42 577.96 1279.55Q580.1 1277.6 580.83 1275.21Q581.2 1273.99 581.2 1272.66Q581.2 1268.41 579.18 1265.61Q578.73 1264.98 578.18 1264.43Q576.93 1263.18 575.43 1262.44Q573.29 1261.41 570.65 1261.41L462.51 1260.69Q462.23 1260.69 461.88 1260.77Q461.53 1260.84 461.11 1260.84L460.96 1194.75L582.18 1194.89L582.32 1194.89Q584.48 1194.89 586.32 1194.14Q588.21 1193.36 589.78 1191.8Q591.34 1190.23 592.12 1188.34Q592.87 1186.5 592.87 1184.34Q592.87 1182.18 592.12 1180.35Q591.34 1178.46 589.78 1176.89Q588.21 1175.31 586.32 1174.55Q584.48 1173.8 582.32 1173.8L582.18 1173.8L450.42 1173.66Q448.26 1173.66 446.42 1174.41Q444.53 1175.18 442.96 1176.75Q441.4 1178.31 440.63 1180.21ZM638.86 1224.61Q636.88 1223.57 634.36 1223.57Q631.81 1223.57 629.74 1224.56Q628.15 1225.32 626.83 1226.67Q625.53 1228.01 624.79 1229.6Q623.81 1231.69 623.81 1234.27L623.95 1360.55Q623.95 1362.61 624.64 1364.41Q625.41 1366.41 627.04 1368.07Q628.67 1369.73 630.64 1370.52Q632.42 1371.23 634.5 1371.23Q636.65 1371.23 638.49 1370.48Q640.38 1369.71 641.95 1368.14Q643.51 1366.57 644.29 1364.68Q645.04 1362.84 645.04 1360.69L645.04 1291.78Q645.04 1270.89 655.36 1258.81Q656.02 1258.06 656.71 1257.32Q657.49 1256.51 658.32 1255.76Q669.91 1245.09 691.31 1245.09Q702.49 1245.09 708.97 1250.61Q709.58 1251.13 710.15 1251.69Q716.76 1258.31 719.29 1269Q721.82 1279.68 721.82 1292.19L721.68 1360.27Q721.68 1362.33 722.38 1364.13Q723.15 1366.12 724.78 1367.79Q726.4 1369.45 728.37 1370.24Q730.16 1370.95 732.23 1370.95Q734.38 1370.95 736.23 1370.2Q738.12 1369.43 739.68 1367.86Q741.25 1366.29 742.02 1364.4Q742.78 1362.56 742.78 1360.41L742.92 1292.19Q742.92 1274.19 737.78 1258.66Q733.55 1245.82 725.09 1237.07Q723.3 1235.23 721.33 1233.56Q720.72 1233.05 720.09 1232.56Q709 1224 691.31 1224Q680.62 1224 671.97 1228.15Q663.32 1232.3 656.64 1238.48Q649.96 1244.67 644.9 1250.86L644.2 1234.13Q644.2 1231.49 643.2 1229.31Q642.54 1227.89 641.46 1226.67Q640.3 1225.37 638.86 1224.61ZM1023.7 1227.04Q1013.73 1223.72 1002.66 1223.72Q991.27 1223.72 981.09 1227.23Q978.07 1228.27 975.16 1229.63Q969.1 1232.43 963.76 1236.25Q957.88 1240.44 952.87 1245.87Q949.5 1249.51 946.64 1253.53Q941.4 1260.89 937.89 1269.49Q935.88 1274.43 934.62 1279.56Q932.48 1288.22 932.48 1297.41Q932.48 1309.06 935.76 1319.73Q938.02 1327.05 941.83 1333.9Q946.91 1343.02 953.95 1350.21Q959.88 1356.27 967.21 1360.97Q972.82 1364.56 978.9 1366.89Q990.23 1371.23 1003.22 1371.23Q1015.59 1371.15 1026.43 1367.03Q1032.85 1364.6 1038.73 1360.76Q1045.78 1356.15 1051.53 1350.27Q1058.68 1342.96 1063.82 1333.69Q1067.68 1326.73 1069.93 1319.3Q1073.11 1308.82 1073.11 1297.41Q1073.11 1286.77 1070.3 1276.93Q1069.21 1273.12 1067.69 1269.42Q1064.53 1261.68 1059.92 1254.94Q1056.65 1250.16 1052.65 1245.87Q1047.67 1240.53 1041.85 1236.37Q1036.41 1232.48 1030.22 1229.63Q1027.02 1228.15 1023.7 1227.04ZM1186.62 1239.71Q1186.88 1238.56 1186.88 1237.36Q1186.88 1233.71 1185.21 1231.13Q1183.29 1228.15 1179.14 1226.6Q1171.41 1223.72 1160.57 1223.72Q1159.92 1223.72 1159.26 1223.75Q1152.34 1224.09 1145.6 1228.01Q1140.28 1231.1 1135.98 1235.25Q1134.31 1236.86 1132.8 1238.63Q1127.39 1244.94 1125.42 1251.42L1124.16 1235.94Q1124.16 1230.61 1121.55 1227.44Q1120.24 1225.84 1118.54 1225.05Q1116.89 1224.28 1114.88 1224.28Q1114.16 1224.28 1113.47 1224.39Q1110.31 1224.87 1107.49 1227.52Q1106.29 1228.65 1105.51 1230.02Q1104.05 1232.56 1104.05 1235.94L1104.05 1360.69Q1104.05 1363.34 1105.04 1365.55Q1105.67 1366.97 1106.72 1368.21Q1107.25 1368.84 1107.88 1369.34Q1110.42 1371.38 1114.59 1371.38Q1119.06 1371.38 1121.61 1369.16Q1122.11 1368.73 1122.54 1368.21Q1123.49 1367.06 1124.09 1365.75Q1125.14 1363.46 1125.14 1360.69L1125.14 1284.05Q1125.14 1274.81 1127.81 1266.43Q1128.11 1265.49 1128.44 1264.56Q1130.04 1260.13 1132.68 1256.46Q1135.55 1252.51 1139.63 1249.44Q1147.5 1243.55 1161.28 1243.55Q1166.77 1243.55 1170.63 1245.59Q1172.61 1246.63 1174.72 1247.14Q1176.73 1247.63 1178.86 1247.63Q1179.21 1247.63 1179.55 1247.57Q1182.11 1247.25 1184.34 1244.39Q1186.06 1242.18 1186.62 1239.71ZM777.43 1274.18Q773.86 1285.14 773.86 1297.27Q773.86 1309.09 777.23 1319.86Q779.43 1326.89 783.07 1333.48Q788.32 1342.97 795.69 1350.35Q801.25 1355.91 808.03 1360.27Q813.78 1363.96 820.04 1366.31Q830.92 1370.39 843.32 1370.39Q857.67 1370.39 869.55 1365.05Q880.2 1360.26 888.26 1352.69Q889.19 1351.82 890.08 1350.91Q898.73 1342.13 903.37 1331.86Q903.49 1331.62 903.59 1331.38Q904.36 1329.6 904.36 1327.5Q904.36 1325.35 903.6 1323.5Q902.83 1321.61 901.26 1320.05Q899.7 1318.48 897.8 1317.71Q895.96 1316.95 893.81 1316.95Q891 1316.95 888.18 1318.78Q885.65 1320.43 884.49 1322.76Q884.36 1323.01 884.25 1323.28Q884.21 1323.37 884.17 1323.45Q879.38 1333.89 868.71 1341.63Q865.97 1343.62 862.98 1345.1Q854.23 1349.44 843.32 1349.44Q835.15 1349.44 827.91 1346.84Q823.07 1345.1 818.64 1342.2Q814.13 1339.23 810.39 1335.49Q804.99 1330.09 801.21 1323.07Q798.57 1318.17 797.02 1312.94Q794.81 1305.5 794.81 1297.41Q794.81 1289.47 796.95 1282.17Q798.53 1276.78 801.28 1271.74Q805.31 1264.34 811.08 1258.74Q814.58 1255.35 818.71 1252.62Q822.97 1249.8 827.64 1248.07Q834.98 1245.38 843.32 1245.38Q854.19 1245.38 862.88 1249.72Q865.89 1251.23 868.64 1253.25Q879.32 1261.13 884.11 1271.67Q884.27 1272.06 884.47 1272.43Q885.65 1274.6 888.04 1276.1Q890.86 1277.86 893.67 1277.86Q895.91 1277.86 897.81 1277.06Q899.62 1276.31 901.12 1274.84Q902.63 1273.36 903.4 1271.56Q904.21 1269.68 904.21 1267.44Q904.21 1265.19 903.09 1262.94Q898.45 1252.55 889.87 1243.82Q889.21 1243.16 888.53 1242.51Q880.38 1234.69 869.48 1229.77Q857.67 1224.42 843.32 1224.42Q831.44 1224.42 820.93 1228.22Q814.27 1230.62 808.17 1234.55Q801.11 1239.07 795.35 1244.91Q788.26 1252.07 783.14 1261.19Q779.61 1267.47 777.43 1274.18ZM1242.52 1366.25Q1254.47 1370.81 1268.16 1370.81Q1274.32 1370.81 1280.31 1369.77Q1289.75 1368.14 1298.74 1363.92Q1307.21 1359.95 1314.16 1354.16Q1319.27 1349.9 1323.56 1344.66Q1325.11 1342.76 1325.72 1340.6Q1326.09 1339.23 1326.09 1337.77Q1326.09 1335.61 1325.34 1333.77Q1324.57 1331.88 1323 1330.31Q1321.43 1328.75 1319.54 1327.97Q1317.7 1327.22 1315.55 1327.22Q1312.84 1327.22 1310.69 1328.32Q1308.73 1329.34 1307.25 1331.3Q1305.96 1332.9 1304.54 1334.38Q1298.36 1340.8 1289.67 1344.8Q1281.04 1348.77 1272.13 1349.54Q1270.01 1349.72 1267.88 1349.72Q1258 1349.72 1249.53 1346.27Q1246.78 1345.15 1244.18 1343.67Q1238.39 1340.38 1233.68 1335.93Q1229.77 1332.22 1226.6 1327.71Q1222.37 1321.69 1219.88 1315.01Q1218.27 1310.69 1217.39 1306.13L1319.77 1306.13Q1323.82 1306.13 1326.22 1304.13Q1327.47 1303.07 1328.27 1301.48Q1330.59 1296.84 1330.59 1290.38Q1330.59 1278.52 1326.78 1268.06Q1324.71 1262.38 1321.52 1257.12Q1316.75 1249.24 1310.34 1243.05Q1304.56 1237.48 1297.48 1233.28Q1291.38 1229.68 1284.81 1227.54Q1275.23 1224.42 1264.64 1224.42Q1252.46 1224.42 1241.72 1228.35Q1235.35 1230.68 1229.48 1234.41Q1222.13 1239.06 1216.18 1245.13Q1209.43 1252.05 1204.52 1260.77Q1200.8 1267.39 1198.59 1274.47Q1195.31 1284.93 1195.31 1296.42Q1195.31 1309.31 1199.25 1320.88Q1201.49 1327.46 1205.02 1333.62Q1210.17 1342.61 1217.24 1349.69Q1223.49 1355.94 1231.24 1360.69Q1236.67 1364.02 1242.52 1366.25ZM986.89 1247.51Q994.28 1244.81 1002.66 1244.81Q1011.37 1244.81 1019.01 1247.68Q1023.58 1249.39 1027.76 1252.13Q1032.21 1255.04 1035.93 1258.69Q1041.54 1264.23 1045.48 1271.46Q1048.29 1276.63 1049.89 1282.15Q1052.02 1289.47 1052.02 1297.41Q1052.02 1305.75 1049.68 1313.39Q1048.14 1318.49 1045.55 1323.28Q1041.67 1330.45 1036.14 1335.98Q1032.44 1339.66 1028.04 1342.62Q1024.11 1345.25 1019.81 1346.96Q1012.04 1350.05 1003.08 1350.14Q994.16 1350.14 986.38 1347.18Q981.88 1345.46 977.76 1342.76Q973.01 1339.64 969.12 1335.69Q963.78 1330.27 960.04 1323.28Q957.49 1318.51 955.95 1313.43Q953.57 1305.64 953.57 1297.13Q953.57 1288.69 955.97 1281.02Q957.53 1276.01 960.11 1271.31Q963.94 1264.37 969.32 1258.99Q973.15 1255.16 977.76 1252.13Q982.12 1249.26 986.89 1247.51ZM1306.4 1274.32Q1308.41 1279.56 1309.07 1285.31L1217.67 1285.31Q1218.81 1280.11 1220.93 1275.32Q1223.21 1270.16 1226.6 1265.48Q1229.42 1261.61 1232.85 1258.38Q1237.38 1254.12 1242.98 1251Q1245.64 1249.52 1248.44 1248.43Q1256.05 1245.52 1264.78 1245.52Q1272.85 1245.52 1279.96 1248.13Q1283.01 1249.26 1285.88 1250.86Q1290.55 1253.47 1294.42 1256.98Q1298.46 1260.64 1301.63 1265.27Q1304.56 1269.59 1306.4 1274.32Z" fill="#FFFFFF" fill-opacity="1.000000" fill-rule="evenodd"/>
	<path id="Encore" d="M439.87 1184.19Q439.87 1179.84 442.96 1176.75Q446.06 1173.66 450.42 1173.66L582.18 1173.8L582.32 1173.8Q586.68 1173.8 589.78 1176.89Q592.87 1179.98 592.87 1184.34Q592.87 1188.69 589.78 1191.8Q586.68 1194.89 582.32 1194.89L582.18 1194.89L460.96 1194.75L461.11 1260.84Q461.53 1260.84 461.88 1260.77Q462.23 1260.69 462.51 1260.69L570.65 1261.41Q575.15 1261.41 578.18 1264.43Q581.2 1267.44 581.2 1272.66Q581.2 1276.59 577.96 1279.55Q574.73 1282.5 570.65 1282.5L570.51 1282.5L462.37 1281.8L461.25 1281.8L461.39 1347.19L582.18 1347.05L582.32 1347.05Q586.68 1347.05 589.78 1350.14Q592.87 1353.23 592.87 1357.59Q592.87 1361.95 589.78 1365.05Q586.68 1368.14 582.32 1368.14L582.18 1368.14L450.84 1368.28Q446.48 1368.28 443.39 1365.19Q440.29 1362.09 440.29 1357.73L439.87 1184.19ZM634.36 1223.57Q638.71 1223.57 641.46 1226.67Q644.2 1229.77 644.2 1234.13L644.9 1250.86Q649.96 1244.67 656.64 1238.48Q663.32 1232.3 671.97 1228.15Q680.62 1224 691.31 1224Q710.01 1224 721.33 1233.56Q732.65 1243.13 737.78 1258.66Q742.92 1274.19 742.92 1292.19L742.78 1360.41Q742.78 1364.77 739.68 1367.86Q736.59 1370.95 732.23 1370.95Q727.87 1370.95 724.78 1367.79Q721.68 1364.63 721.68 1360.27L721.82 1292.19Q721.82 1279.68 719.29 1269Q716.76 1258.31 710.15 1251.69Q703.54 1245.09 691.31 1245.09Q668.39 1245.09 656.71 1257.32Q645.04 1269.56 645.04 1291.78L645.04 1360.69Q645.04 1365.05 641.95 1368.14Q638.86 1371.23 634.5 1371.23Q630.14 1371.23 627.04 1368.07Q623.95 1364.91 623.95 1360.55L623.81 1234.27Q623.81 1229.77 626.83 1226.67Q629.86 1223.57 634.36 1223.57ZM773.86 1297.27Q773.86 1277.72 783.14 1261.19Q792.42 1244.67 808.17 1234.55Q823.92 1224.42 843.32 1224.42Q857.67 1224.42 869.48 1229.77Q881.29 1235.11 889.87 1243.82Q898.45 1252.55 903.09 1262.94Q904.21 1265.19 904.21 1267.44Q904.21 1271.81 901.12 1274.84Q898.03 1277.86 893.67 1277.86Q890.86 1277.86 888.04 1276.1Q885.23 1274.34 884.11 1271.67Q879.32 1261.13 868.64 1253.25Q857.95 1245.38 843.32 1245.38Q829.68 1245.38 818.71 1252.62Q807.75 1259.86 801.28 1271.74Q794.81 1283.63 794.81 1297.41Q794.81 1311.19 801.21 1323.07Q807.61 1334.95 818.64 1342.2Q829.68 1349.44 843.32 1349.44Q857.95 1349.44 868.71 1341.63Q879.46 1333.83 884.25 1323.28Q885.37 1320.61 888.18 1318.78Q891 1316.95 893.81 1316.95Q898.17 1316.95 901.26 1320.05Q904.36 1323.14 904.36 1327.5Q904.36 1329.89 903.37 1331.86Q898.73 1342.13 890.08 1350.91Q881.43 1359.7 869.55 1365.05Q857.67 1370.39 843.32 1370.39Q823.78 1370.39 808.03 1360.27Q792.28 1350.14 783.07 1333.48Q773.86 1316.81 773.86 1297.27ZM1002.66 1223.72Q1017.42 1223.72 1030.22 1229.63Q1043.02 1235.53 1052.65 1245.87Q1062.28 1256.19 1067.69 1269.42Q1073.11 1282.64 1073.11 1297.41Q1073.11 1316.95 1063.82 1333.69Q1054.55 1350.42 1038.73 1360.76Q1022.91 1371.09 1003.22 1371.23Q983.25 1371.23 967.21 1360.97Q951.18 1350.7 941.83 1333.9Q932.48 1317.09 932.48 1297.41Q932.48 1282.78 937.89 1269.49Q943.31 1256.19 952.87 1245.87Q962.43 1235.53 975.16 1229.63Q987.89 1223.72 1002.66 1223.72ZM1002.66 1244.81Q988.87 1244.81 977.76 1252.13Q966.65 1259.43 960.11 1271.31Q953.57 1283.19 953.57 1297.13Q953.57 1311.19 960.04 1323.28Q966.51 1335.38 977.76 1342.76Q989.01 1350.14 1003.08 1350.14Q1017 1350 1028.04 1342.62Q1039.07 1335.23 1045.55 1323.28Q1052.02 1311.33 1052.02 1297.41Q1052.02 1283.48 1045.48 1271.46Q1038.93 1259.43 1027.76 1252.13Q1016.58 1244.81 1002.66 1244.81ZM1186.88 1237.36Q1186.88 1241.16 1184.34 1244.39Q1181.81 1247.63 1178.86 1247.63Q1174.5 1247.63 1170.63 1245.59Q1166.77 1243.55 1161.28 1243.55Q1147.5 1243.55 1139.63 1249.44Q1131.75 1255.36 1128.44 1264.56Q1125.14 1273.78 1125.14 1284.05L1125.14 1360.69Q1125.14 1365.05 1122.54 1368.21Q1119.93 1371.38 1114.59 1371.38Q1109.39 1371.38 1106.72 1368.21Q1104.05 1365.05 1104.05 1360.69L1104.05 1235.94Q1104.05 1230.75 1107.49 1227.52Q1110.93 1224.28 1114.88 1224.28Q1118.94 1224.28 1121.55 1227.44Q1124.16 1230.61 1124.16 1235.94L1125.42 1251.42Q1127.39 1244.94 1132.8 1238.63Q1138.22 1232.3 1145.6 1228.01Q1152.98 1223.72 1160.57 1223.72Q1171.41 1223.72 1179.14 1226.6Q1186.88 1229.48 1186.88 1237.36ZM1268.16 1370.81Q1247.77 1370.81 1231.24 1360.69Q1214.72 1350.56 1205.02 1333.62Q1195.31 1316.67 1195.31 1296.42Q1195.31 1277.16 1204.52 1260.77Q1213.73 1244.39 1229.48 1234.41Q1245.23 1224.42 1264.64 1224.42Q1282.5 1224.42 1297.48 1233.28Q1312.45 1242.14 1321.52 1257.12Q1330.59 1272.09 1330.59 1290.38Q1330.59 1296.84 1328.27 1301.48Q1325.95 1306.13 1319.77 1306.13L1217.39 1306.13Q1219.64 1317.8 1226.6 1327.71Q1233.56 1337.63 1244.18 1343.67Q1254.8 1349.72 1267.88 1349.72Q1278.98 1349.72 1289.67 1344.8Q1300.36 1339.88 1307.25 1331.3Q1310.34 1327.22 1315.55 1327.22Q1319.91 1327.22 1323 1330.31Q1326.09 1333.41 1326.09 1337.77Q1326.09 1341.56 1323.56 1344.66Q1313.44 1357.03 1298.74 1363.92Q1284.05 1370.81 1268.16 1370.81ZM1309.07 1285.31Q1307.81 1274.34 1301.63 1265.27Q1295.43 1256.19 1285.88 1250.86Q1276.31 1245.52 1264.78 1245.52Q1252.82 1245.52 1242.98 1251Q1233.14 1256.48 1226.6 1265.48Q1220.06 1274.48 1217.67 1285.31L1309.07 1285.31Z" stroke="#000000" stroke-opacity="1.000000" stroke-width="3.000000"/>
</svg>
